<?xml version="1.0" encoding="UTF-8"?>
<svg version="1.1" xmlns="http://www.w3.org/2000/svg" width="512" height="512">
<path d="M0 0 C18.18929884 15.04604008 31.27525771 34.17923666 34 58 C34.12775741 61.51000129 34.11677272 65.01541491 34.09765625 68.52734375 C34.09553383 70.01071983 34.09553383 70.01071983 34.09336853 71.52406311 C34.08780088 74.66190704 34.0752544 77.79967787 34.0625 80.9375 C34.05748082 83.07356667 34.05291864 85.20963447 34.04882812 87.34570312 C34.03784206 92.56382675 34.02113636 97.78190815 34 103 C34.92184082 102.99333817 35.84368164 102.98667633 36.79345703 102.97981262 C45.50289448 102.91957253 54.21226143 102.87396013 62.92185974 102.84456348 C67.39900641 102.82894204 71.87598017 102.80776849 76.35302734 102.77368164 C80.67781258 102.74096206 85.00243203 102.72312052 89.32733154 102.71536827 C90.97306933 102.7098473 92.61879858 102.69906633 94.26446533 102.68280983 C96.57884971 102.66086744 98.89255873 102.65803998 101.20703125 102.65942383 C102.5216333 102.65276199 103.83623535 102.64610016 105.19067383 102.63923645 C113.44145469 103.4206295 119.45936663 106.94224084 125 113 C134.8913118 125.52509305 132.36939331 151.15127648 133.76842093 166.55442119 C134.13319685 170.56405017 134.50107649 174.57339464 134.86853027 178.58277893 C135.58577517 186.41438337 136.30012578 194.24624914 137.01336707 202.07821912 C137.59309677 208.44369647 138.17381164 214.80908323 138.75521469 221.17440796 C138.83820455 222.08302419 138.92119441 222.99164041 139.00669911 223.92779046 C139.17532488 225.77397317 139.34395182 227.62015578 139.5125799 229.46633828 C141.08993218 246.73709103 142.66386511 264.00815411 144.23670851 281.27931798 C145.67520948 297.07416582 147.11784093 312.8686332 148.56243326 328.662925 C150.04783331 344.90375707 151.53056206 361.14483093 153.01035202 377.38617516 C153.84037121 386.4955135 154.67142723 395.60475433 155.50525284 404.71374512 C156.21432652 412.46026503 156.92085959 420.20701155 157.62412013 427.95406145 C157.98281057 431.90460275 158.34265707 435.85502957 158.70565414 439.80517769 C159.0380691 443.42287297 159.36712564 447.04085766 159.69354056 450.6590991 C159.86799315 452.58328227 160.04599289 454.50714282 160.22413075 456.43098831 C162.22094186 478.70809571 162.22094186 478.70809571 154.5625 487.9375 C153.716875 488.618125 152.87125 489.29875 152 490 C151.175 490.721875 150.35 491.44375 149.5 492.1875 C144.85485689 495.55522875 141.05851652 496.25040726 135.36318493 496.25726891 C134.70641186 496.26077498 134.0496388 496.26428105 133.37296352 496.26789337 C131.16873925 496.27720893 128.96477909 496.27228374 126.76054382 496.26742554 C125.16563016 496.27116172 123.57071832 496.27576312 121.9758094 496.28115618 C117.59012102 496.29340552 113.20450883 496.29312344 108.81880724 496.29076743 C104.08998792 496.29035975 99.36119317 496.30139372 94.63238525 496.31088257 C85.36661537 496.32750412 76.10087093 496.33299264 66.83508738 496.33410732 C59.30428301 496.33505725 51.77348704 496.33916475 44.24268532 496.34550858 C22.89712361 496.3631241 1.55158202 496.37234695 -19.79398701 496.37084763 C-21.52054474 496.37072776 -21.52054474 496.37072776 -23.28198242 496.37060547 C-24.43442435 496.37052371 -25.58686627 496.37044195 -26.77423068 496.37035771 C-45.45357112 496.36954471 -64.13283095 496.38868506 -82.81214807 496.4168822 C-101.98640116 496.44559836 -121.16061492 496.4594232 -140.33489007 496.45769465 C-151.1020159 496.45703031 -161.86905723 496.46254179 -172.63616371 496.48405075 C-181.80323473 496.50224584 -190.97018293 496.50662363 -200.13726417 496.4930319 C-204.81471647 496.48649383 -209.49193303 496.48641533 -214.16936302 496.5037384 C-218.45222216 496.51943708 -222.73465801 496.51663842 -227.01750662 496.49917014 C-228.56594335 496.49609316 -230.11441142 496.4997589 -231.6628112 496.51089029 C-241.31785475 496.57569685 -248.16170404 496.17852833 -255.75 489.625 C-261.95940984 482.38068852 -264.47070475 476.17574618 -263.80123901 466.5736084 C-263.74980708 465.81265413 -263.69837515 465.05169986 -263.64538467 464.26768637 C-263.44952826 461.50997552 -263.22763796 458.75527029 -263 456 C-262.91000182 454.90687563 -262.82000363 453.81375126 -262.72727823 452.68750191 C-261.98746838 443.84087008 -261.19339136 434.99939539 -260.39162183 426.15822268 C-260.028095 422.14214824 -259.66814402 418.1257529 -259.30764771 414.10940552 C-258.44006127 404.45234318 -257.56660053 394.79581565 -256.69258958 385.13933301 C-256.28009136 380.58010786 -255.86830732 376.02081822 -255.45647812 371.46153259 C-254.08623793 356.29407217 -252.7147104 341.12672925 -251.33876228 325.95978546 C-251.20715449 324.50903958 -251.20715449 324.50903958 -251.07288795 323.02898571 C-250.98495399 322.05967327 -250.89702003 321.09036083 -250.8064214 320.09167528 C-250.62826938 318.12784885 -250.4501198 316.16402219 -250.27197266 314.20019531 C-250.18360665 313.22609457 -250.09524064 312.25199383 -250.00419687 311.24837488 C-248.56977764 295.43334796 -247.14453747 279.61750807 -245.72316064 263.80130416 C-244.26075211 247.53005915 -242.79054903 231.25953359 -241.3125838 214.98969412 C-240.4841036 205.86750912 -239.65897473 196.74504873 -238.84250259 187.6217804 C-238.14811481 179.86304786 -237.4466215 172.10499895 -236.7358972 164.34774512 C-236.37382224 160.39350925 -236.01507519 156.43904733 -235.66542053 152.48369217 C-235.34488576 148.85866683 -235.01467307 145.23465453 -234.67694341 141.61119193 C-234.50029741 139.68942617 -234.33381491 137.76673441 -234.16777527 135.84402323 C-233.11657336 124.76029966 -231.58144783 115.62991152 -223 108 C-217.02140047 103.69391057 -211.86818374 102.84875381 -204.66113281 102.88647461 C-203.56297997 102.88625557 -203.56297997 102.88625557 -202.44264221 102.8860321 C-200.02943938 102.88672724 -197.6163143 102.89450092 -195.203125 102.90234375 C-193.52732383 102.90420935 -191.85152212 102.90563258 -190.17572021 102.90663147 C-185.76986174 102.91044548 -181.36403634 102.92026624 -176.95819092 102.93133545 C-172.46041308 102.94157357 -167.96262989 102.94613424 -163.46484375 102.95117188 C-154.64321465 102.9618895 -145.82161008 102.97895253 -137 103 C-137.0314209 101.08876343 -137.0314209 101.08876343 -137.06347656 99.13891602 C-137.13688033 94.32865012 -137.18215789 89.51843164 -137.21972656 84.70776367 C-137.23961672 82.64127224 -137.26673874 80.57483535 -137.30175781 78.50854492 C-137.75595039 50.98313874 -131.47936543 27.80756375 -112 7.5625 C-81.84543643 -21.09370017 -33.64370536 -24.98574482 0 0 Z M-102 24 C-122.34973264 47.42080509 -119 71.14113745 -119 103 C-74.45 103 -29.9 103 16 103 C17.3612903 56.44468136 17.3612903 56.44468136 -4.1875 20.3125 C-19.04737422 6.08875054 -36.83851794 1.52289226 -56.765625 1.796875 C-74.5365982 2.31325338 -90.14497932 11.12834237 -102 24 Z M-134 157 C-136.34549674 160.51824511 -136.57991403 161.85775694 -136 166 C-133.51397551 169.36344489 -132.08574477 170.80057749 -127.9375 171.5625 C-124.31562954 170.86895034 -123.16074795 169.96102497 -121 167 C-119.74668983 163.74139356 -119.76720094 162.52686102 -121.1875 159.3125 C-123.05388364 156.93125191 -124.1689936 155.97315845 -127 155 C-130.15987325 155 -131.36034793 155.38214873 -134 157 Z M19 158 C17.341404 160.80896063 17.341404 160.80896063 17 164 C18.33126447 166.92878184 19.73304965 168.73304965 22 171 C24.87237733 171.58442963 24.87237733 171.58442963 28 171 C31.36344489 168.51397551 32.80057749 167.08574477 33.5625 162.9375 C32.86895034 159.31562954 31.96102497 158.16074795 29 156 C24.72787078 154.35687338 22.474676 155.08878497 19 158 Z " fill="#54C8F3" transform="translate(308,16)"/>
<path d="M0 0 C18.18929884 15.04604008 31.27525771 34.17923666 34 58 C34.12775741 61.51000129 34.11677272 65.01541491 34.09765625 68.52734375 C34.09553383 70.01071983 34.09553383 70.01071983 34.09336853 71.52406311 C34.08780088 74.66190704 34.0752544 77.79967787 34.0625 80.9375 C34.05748082 83.07356667 34.05291864 85.20963447 34.04882812 87.34570312 C34.03784206 92.56382675 34.02113636 97.78190815 34 103 C34.92184082 102.99333817 35.84368164 102.98667633 36.79345703 102.97981262 C45.50289448 102.91957253 54.21226143 102.87396013 62.92185974 102.84456348 C67.39900641 102.82894204 71.87598017 102.80776849 76.35302734 102.77368164 C80.67781258 102.74096206 85.00243203 102.72312052 89.32733154 102.71536827 C90.97306933 102.7098473 92.61879858 102.69906633 94.26446533 102.68280983 C96.57884971 102.66086744 98.89255873 102.65803998 101.20703125 102.65942383 C102.5216333 102.65276199 103.83623535 102.64610016 105.19067383 102.63923645 C113.44145469 103.4206295 119.45936663 106.94224084 125 113 C134.8913118 125.52509305 132.36939331 151.15127648 133.76842093 166.55442119 C134.13319685 170.56405017 134.50107649 174.57339464 134.86853027 178.58277893 C135.58577517 186.41438337 136.30012578 194.24624914 137.01336707 202.07821912 C137.59309677 208.44369647 138.17381164 214.80908323 138.75521469 221.17440796 C138.83820455 222.08302419 138.92119441 222.99164041 139.00669911 223.92779046 C139.17532488 225.77397317 139.34395182 227.62015578 139.5125799 229.46633828 C141.08993218 246.73709103 142.66386511 264.00815411 144.23670851 281.27931798 C145.67520948 297.07416582 147.11784093 312.8686332 148.56243326 328.662925 C150.04783331 344.90375707 151.53056206 361.14483093 153.01035202 377.38617516 C153.84037121 386.4955135 154.67142723 395.60475433 155.50525284 404.71374512 C156.21432652 412.46026503 156.92085959 420.20701155 157.62412013 427.95406145 C157.98281057 431.90460275 158.34265707 435.85502957 158.70565414 439.80517769 C159.0380691 443.42287297 159.36712564 447.04085766 159.69354056 450.6590991 C159.86799315 452.58328227 160.04599289 454.50714282 160.22413075 456.43098831 C162.22094186 478.70809571 162.22094186 478.70809571 154.5625 487.9375 C153.716875 488.618125 152.87125 489.29875 152 490 C151.175 490.721875 150.35 491.44375 149.5 492.1875 C144.85485689 495.55522875 141.05851652 496.25040726 135.36318493 496.25726891 C134.70641186 496.26077498 134.0496388 496.26428105 133.37296352 496.26789337 C131.16873925 496.27720893 128.96477909 496.27228374 126.76054382 496.26742554 C125.16563016 496.27116172 123.57071832 496.27576312 121.9758094 496.28115618 C117.59012102 496.29340552 113.20450883 496.29312344 108.81880724 496.29076743 C104.08998792 496.29035975 99.36119317 496.30139372 94.63238525 496.31088257 C85.36661537 496.32750412 76.10087093 496.33299264 66.83508738 496.33410732 C59.30428301 496.33505725 51.77348704 496.33916475 44.24268532 496.34550858 C22.89712361 496.3631241 1.55158202 496.37234695 -19.79398701 496.37084763 C-21.52054474 496.37072776 -21.52054474 496.37072776 -23.28198242 496.37060547 C-24.43442435 496.37052371 -25.58686627 496.37044195 -26.77423068 496.37035771 C-45.45357112 496.36954471 -64.13283095 496.38868506 -82.81214807 496.4168822 C-101.98640116 496.44559836 -121.16061492 496.4594232 -140.33489007 496.45769465 C-151.1020159 496.45703031 -161.86905723 496.46254179 -172.63616371 496.48405075 C-181.80323473 496.50224584 -190.97018293 496.50662363 -200.13726417 496.4930319 C-204.81471647 496.48649383 -209.49193303 496.48641533 -214.16936302 496.5037384 C-218.45222216 496.51943708 -222.73465801 496.51663842 -227.01750662 496.49917014 C-228.56594335 496.49609316 -230.11441142 496.4997589 -231.6628112 496.51089029 C-241.31785475 496.57569685 -248.16170404 496.17852833 -255.75 489.625 C-261.95940984 482.38068852 -264.47070475 476.17574618 -263.80123901 466.5736084 C-263.74980708 465.81265413 -263.69837515 465.05169986 -263.64538467 464.26768637 C-263.44952826 461.50997552 -263.22763796 458.75527029 -263 456 C-262.91000182 454.90687563 -262.82000363 453.81375126 -262.72727823 452.68750191 C-261.98746838 443.84087008 -261.19339136 434.99939539 -260.39162183 426.15822268 C-260.028095 422.14214824 -259.66814402 418.1257529 -259.30764771 414.10940552 C-258.44006127 404.45234318 -257.56660053 394.79581565 -256.69258958 385.13933301 C-256.28009136 380.58010786 -255.86830732 376.02081822 -255.45647812 371.46153259 C-254.08623793 356.29407217 -252.7147104 341.12672925 -251.33876228 325.95978546 C-251.20715449 324.50903958 -251.20715449 324.50903958 -251.07288795 323.02898571 C-250.98495399 322.05967327 -250.89702003 321.09036083 -250.8064214 320.09167528 C-250.62826938 318.12784885 -250.4501198 316.16402219 -250.27197266 314.20019531 C-250.18360665 313.22609457 -250.09524064 312.25199383 -250.00419687 311.24837488 C-248.56977764 295.43334796 -247.14453747 279.61750807 -245.72316064 263.80130416 C-244.26075211 247.53005915 -242.79054903 231.25953359 -241.3125838 214.98969412 C-240.4841036 205.86750912 -239.65897473 196.74504873 -238.84250259 187.6217804 C-238.14811481 179.86304786 -237.4466215 172.10499895 -236.7358972 164.34774512 C-236.37382224 160.39350925 -236.01507519 156.43904733 -235.66542053 152.48369217 C-235.34488576 148.85866683 -235.01467307 145.23465453 -234.67694341 141.61119193 C-234.50029741 139.68942617 -234.33381491 137.76673441 -234.16777527 135.84402323 C-233.11657336 124.76029966 -231.58144783 115.62991152 -223 108 C-217.02140047 103.69391057 -211.86818374 102.84875381 -204.66113281 102.88647461 C-203.56297997 102.88625557 -203.56297997 102.88625557 -202.44264221 102.8860321 C-200.02943938 102.88672724 -197.6163143 102.89450092 -195.203125 102.90234375 C-193.52732383 102.90420935 -191.85152212 102.90563258 -190.17572021 102.90663147 C-185.76986174 102.91044548 -181.36403634 102.92026624 -176.95819092 102.93133545 C-172.46041308 102.94157357 -167.96262989 102.94613424 -163.46484375 102.95117188 C-154.64321465 102.9618895 -145.82161008 102.97895253 -137 103 C-137.0314209 101.08876343 -137.0314209 101.08876343 -137.06347656 99.13891602 C-137.13688033 94.32865012 -137.18215789 89.51843164 -137.21972656 84.70776367 C-137.23961672 82.64127224 -137.26673874 80.57483535 -137.30175781 78.50854492 C-137.75595039 50.98313874 -131.47936543 27.80756375 -112 7.5625 C-81.84543643 -21.09370017 -33.64370536 -24.98574482 0 0 Z M-102 24 C-122.34973264 47.42080509 -119 71.14113745 -119 103 C-74.45 103 -29.9 103 16 103 C17.3612903 56.44468136 17.3612903 56.44468136 -4.1875 20.3125 C-19.04737422 6.08875054 -36.83851794 1.52289226 -56.765625 1.796875 C-74.5365982 2.31325338 -90.14497932 11.12834237 -102 24 Z M-215 126 C-216.01156297 129.74755178 -216.30871902 133.51331362 -216.63056946 137.37382507 C-216.74395985 138.5203932 -216.85735024 139.66696132 -216.9741767 140.84827393 C-217.33668384 144.56387199 -217.66839792 148.28152959 -218 152 C-218.23267012 154.42094835 -218.46750647 156.84168951 -218.70451927 159.26221657 C-219.40253585 166.46114515 -220.06254752 173.66325829 -220.71540058 180.86637938 C-221.0546104 184.60124525 -221.39747081 188.33577653 -221.73979187 192.07035828 C-222.40585807 199.34342436 -223.06854154 206.61679458 -223.7298102 213.89029828 C-224.26751979 219.8045057 -224.80627145 225.71861731 -225.34572792 231.63266563 C-226.88026602 248.45690388 -228.4123026 265.28136699 -229.94090696 282.10614542 C-230.02284663 283.00802417 -230.1047863 283.90990292 -230.18920898 284.83911133 C-230.31227005 286.19360574 -230.31227005 286.19360574 -230.43781719 287.57546367 C-231.77129677 302.25095934 -233.11077736 316.92590033 -234.45295795 331.60060254 C-235.83611459 346.72404087 -237.21488991 361.84787307 -238.58908826 376.97212809 C-239.35871876 385.4416258 -240.13010971 393.91095429 -240.90620995 402.37986183 C-241.5657159 409.57687869 -242.22112006 416.77425475 -242.87129375 423.97212092 C-243.20253364 427.63789704 -243.53561197 431.30348009 -243.87386322 434.96861649 C-244.24137544 438.95144126 -244.59968861 442.93504245 -244.9571991 446.91877747 C-245.06409929 448.06158749 -245.17099948 449.20439751 -245.28113908 450.38183814 C-245.56436484 453.5867145 -245.79842584 456.78899898 -246 460 C-246.07895213 461.15129438 -246.15790426 462.30258876 -246.23924887 463.48877084 C-246.62986409 470.38389509 -246.62986409 470.38389509 -244.43000031 476.76614285 C-239.80572828 481.05559116 -232.02601956 479.80671719 -226.11999512 479.74171448 C-224.56418366 479.74647894 -223.00837839 479.75386995 -221.45259047 479.76366371 C-217.17484491 479.78292379 -212.89794973 479.76468673 -208.62026 479.74037087 C-204.00804765 479.72065305 -199.39593107 479.73548235 -194.78370667 479.74601746 C-185.74742706 479.76115175 -176.71147651 479.7442085 -167.67523777 479.71646655 C-157.15686029 479.68533361 -146.6385542 479.68552462 -136.1201393 479.68698429 C-117.35525119 479.68848667 -98.59051638 479.66098795 -79.82568359 479.61743164 C-61.60853278 479.57516835 -43.39151692 479.55391929 -25.17431641 479.5559082 C-23.49138136 479.55608801 -23.49138136 479.55608801 -21.77444762 479.55627144 C-20.65444942 479.5563925 -19.53445121 479.55651357 -18.38051367 479.5566383 C2.34597454 479.55870707 23.07240529 479.54104197 43.79887488 479.51417865 C51.13435615 479.50512339 58.46982687 479.50193923 65.80531311 479.50058174 C74.74227817 479.49853672 83.67914642 479.48516223 92.61607039 479.45758332 C97.17765859 479.4437184 101.73912286 479.43459682 106.30073357 479.43836594 C110.47422663 479.44164719 114.64744545 479.43112011 118.82088131 479.40942036 C120.33291408 479.40397359 121.8449751 479.40359613 123.35700899 479.40872223 C125.40865881 479.41490898 127.45940741 479.40274113 129.5109787 479.38590336 C130.65160625 479.38379008 131.7922338 479.38167681 132.96742582 479.3794995 C137.33855472 478.83249187 139.92749098 477.07250902 143 474 C143.92313775 465.13372644 142.59424337 455.94409494 141.75341797 447.10888672 C141.61774473 445.63970872 141.48256168 444.17048539 141.34782219 442.70122147 C141.05614955 439.53245949 140.76099716 436.36404812 140.46309662 433.19586563 C139.98000404 428.05814839 139.5046755 422.91972852 139.03009033 417.78121948 C138.34348192 410.35606414 137.6531089 402.93126719 136.96002197 395.50671387 C135.86938179 383.82295799 134.78514845 372.13861308 133.70263672 360.45410156 C133.56662957 358.98609368 133.56662957 358.98609368 133.4278748 357.48842907 C133.05902702 353.50703893 132.69020261 349.52564662 132.3214761 345.54424524 C131.85488542 340.50631035 131.38803121 335.46840012 130.92061234 330.43054199 C128.28788899 302.05454841 125.69208714 273.67546432 123.1371417 245.29236269 C122.81132585 241.67403596 122.48504638 238.05575112 122.1587342 234.43746912 C120.7675809 219.01172396 119.3774018 203.58590023 117.99975348 188.15894234 C117.43419633 181.82895081 116.86480015 175.49931178 116.29247713 169.16992843 C115.9019014 164.84835406 115.51579389 160.52641538 115.1334213 156.20410788 C114.84611168 152.97258793 114.55167897 149.74171597 114.25830078 146.51074219 C114.15968184 145.37964964 114.06106289 144.24855709 113.95945549 143.08318901 C113.5069239 138.16855621 112.97441639 133.27636028 112.1713562 128.40557861 C111.97955937 127.23493299 111.97955937 127.23493299 111.78388786 126.04063797 C110.74799424 123.34397184 109.46761244 122.44484104 107 121 C103.64647463 120.564701 103.64647463 120.564701 99.84472656 120.65942383 C99.13213181 120.65898575 98.41953705 120.65854767 97.68534851 120.65809631 C95.33682579 120.66018149 92.98902255 120.6834988 90.640625 120.70703125 C89.00966787 120.71262819 87.37870568 120.71689783 85.7477417 120.71989441 C81.46012386 120.73133551 77.17281207 120.76079622 72.88531494 120.79400635 C68.50822082 120.82472315 64.13107714 120.83840318 59.75390625 120.85351562 C51.1691149 120.88566682 42.58463081 120.93842861 34 121 C34 127.27 34 133.54 34 140 C35.98 140.99 37.96 141.98 40 143 C43.41538378 146.01824613 45.88322766 148.96805269 48 153 C48.391875 153.721875 48.78375 154.44375 49.1875 155.1875 C51.23573945 162.27755964 50.37768256 168.9825489 47.390625 175.671875 C43.94075392 181.44750186 38.54327763 185.5793524 32.1171875 187.5546875 C23.87325429 189.28865131 18.03588043 187.80426932 10.64453125 183.78125 C5.50823006 180.32164388 2.98191667 175.81815881 1 170 C-0.0665846 161.43364159 0.70526628 154.00475537 6 147 C8.49265844 144.66737605 11.10276581 142.79410318 14 141 C15.485 140.01 15.485 140.01 17 139 C17 133.06 17 127.12 17 121 C-28.21 121 -73.42 121 -120 121 C-120 126.94 -120 132.88 -120 139 C-115.84697914 142.98722851 -115.84697914 142.98722851 -112.5546875 144.55859375 C-108.17408517 147.030218 -105.90737939 151.16591243 -104.3984375 155.87890625 C-103.06936683 162.95425304 -103.06727758 170.04930744 -106.81640625 176.328125 C-111.41507979 182.8239411 -117.8612547 187.08498125 -125.7421875 188.48828125 C-133.55459684 188.875582 -139.94625643 186.52350707 -145.8515625 181.390625 C-150.73220075 176.14934845 -153.0503531 170.36315145 -153.5625 163.25 C-153.3125277 156.76071909 -150.82462363 151.19162777 -147 146 C-144.375 144.31640625 -144.375 144.31640625 -141.625 142.875 C-139.00926128 141.50696795 -139.00926128 141.50696795 -137 139 C-136.42600016 135.90238911 -136.56378807 132.89445092 -136.7109375 129.7578125 C-136.7318042 128.91677979 -136.7526709 128.07574707 -136.77416992 127.20922852 C-136.82853806 125.13883094 -136.91149005 123.06921917 -137 121 C-146.43156061 120.88408925 -155.86287562 120.7952766 -165.2949934 120.74093914 C-169.67486436 120.71485812 -174.05424762 120.6794882 -178.43383789 120.62280273 C-182.66138302 120.56842837 -186.88845943 120.53856821 -191.11632729 120.52561378 C-192.72830903 120.51638352 -194.34026545 120.49835841 -195.95204735 120.47134972 C-198.21232664 120.43498453 -200.47067585 120.43005736 -202.73120117 120.43237305 C-204.01693527 120.42126999 -205.30266937 120.41016693 -206.62736511 120.39872742 C-211.12986408 121.20143191 -212.24403145 122.34252189 -215 126 Z M-134 157 C-136.34549674 160.51824511 -136.57991403 161.85775694 -136 166 C-133.51397551 169.36344489 -132.08574477 170.80057749 -127.9375 171.5625 C-124.31562954 170.86895034 -123.16074795 169.96102497 -121 167 C-119.74668983 163.74139356 -119.76720094 162.52686102 -121.1875 159.3125 C-123.05388364 156.93125191 -124.1689936 155.97315845 -127 155 C-130.15987325 155 -131.36034793 155.38214873 -134 157 Z M19 158 C17.341404 160.80896063 17.341404 160.80896063 17 164 C18.33126447 166.92878184 19.73304965 168.73304965 22 171 C24.87237733 171.58442963 24.87237733 171.58442963 28 171 C31.36344489 168.51397551 32.80057749 167.08574477 33.5625 162.9375 C32.86895034 159.31562954 31.96102497 158.16074795 29 156 C24.72787078 154.35687338 22.474676 155.08878497 19 158 Z " fill="#006D95" transform="translate(308,16)"/>
</svg>
